<svg width="551" height="449" viewBox="0 0 551 449" fill="none" xmlns="http://www.w3.org/2000/svg">
<path d="M87.1073 40.6812L3 91.1739L9.41176 111.899L15.8235 120.565L9.41176 127.348L15.8235 150.333L26.0069 153.348L43.7336 174.072L53.1626 178.594L59.1972 167.667L87.1073 159L98.4221 187.638L102.948 213.638L117.28 226.449L137.647 222.304L153.111 226.449L159.522 237.377L162.917 247.551L159.522 253.957L166.311 268.275L171.969 257.348H185.924L193.844 263.754L213.457 257.348L230.806 272.42L236.464 281.841L226.28 305.58H236.464V318.768L226.28 330.072L236.464 345.899L269.277 351.551L300.958 336.101L305.484 318.768L323.965 301.058L335.28 305.58L319.817 345.899L331.886 351.551L328.491 383.203L344.709 380.188L360.55 388.855L403.17 416.362L412.599 422.014L415.993 445L473.322 429.551L476.339 406.565L466.533 383.203L457.858 380.188L454.841 356.826L466.533 339.87L473.322 318.768L484.26 301.058L492.934 298.043H510.284L518.958 292.391L514.81 281.841L530.273 272.42L533.291 263.754H543.474L548 257.348L543.474 237.377L536.685 222.304H522.73L514.81 210.246L527.256 194.797H514.81L501.986 174.072L488.408 167.667H445.789V159L439 153.348V141.667L445.789 138.275L466.533 77.9855L426.931 64.4203V56.1304L415.993 49.3478L379.031 56.1304V45.2029H366.962L356.024 27.1159L363.567 15.4348L350.367 6.76812L338.675 22.971H319.817L328.491 6.76812L314.159 3L300.958 19.9565H284.363V6.76812L263.619 15.4348L269.277 31.6377L263.619 36.1594L254.945 31.6377H242.121V40.6812L210.439 59.1449L193.844 68.1884L179.512 64.4203V59.1449L153.111 45.2029L141.419 49.3478V59.1449L121.429 52.3623V31.6377L87.1073 40.6812Z" stroke="#2D3435" stroke-width="5"/>
</svg>
