<svg width="466" height="474" viewBox="0 0 466 474" fill="none" xmlns="http://www.w3.org/2000/svg">
<path d="M141.197 442.378L162.914 458.176L192.528 442.378L222.142 430.529L235.961 472H293.215L310.983 458.176L293.215 430.529L277.421 418.681L310.983 373.26L328.751 387.084V404.857H352.442L362.313 387.084M141.197 442.378L125.403 430.529L79.9957 442.378L56.3047 396.958L68.1502 373.26L8.92275 396.958L3 306.118L18.794 262.672L74.073 244.899L79.9957 209.353L56.3047 195.529L74.073 171.832L56.3047 136.286L68.1502 124.437L62.2275 116.538M141.197 442.378L135.275 418.681L141.197 410.782L131.326 394.983L137.249 391.034L125.403 381.16L129.352 369.311L141.197 373.26M362.313 387.084L380.082 404.857L395.876 373.26L413.644 387.084L433.386 363.387L463 306.118L449.18 270.571H413.644L449.18 209.353H423.515L395.876 225.151L352.442 209.353L318.88 213.303L301.112 219.227M362.313 387.084L366.262 377.21L340.597 337.714L326.777 323.891L310.983 319.941L301.112 304.143V314.017H293.215L271.498 286.37M301.112 219.227L293.215 195.529H255.704L277.421 179.731V148.134L255.704 124.437L235.961 108.639M301.112 219.227V233.05L293.215 240.95H275.446V260.697L265.575 278.471L271.498 286.37M235.961 108.639L277.421 90.8655L265.575 73.0924L285.318 65.1933V41.4958H265.575L235.961 51.3697L208.322 41.4958H176.734M235.961 108.639L220.167 114.563L202.399 124.437L208.322 132.336L178.708 134.311M176.734 41.4958L192.528 25.6975L162.914 2H125.403H101.712L68.1502 41.4958L79.9957 51.3697L68.1502 65.1933L56.3047 90.8655H26.691V108.639H56.3047L62.2275 116.538M176.734 41.4958V51.3697H182.657V67.1681L155.017 80.9916L160.94 94.8151L151.069 108.639L158.966 120.487M158.966 120.487L147.12 124.437L141.197 144.185L129.352 154.059L115.532 140.235L99.7382 138.261V124.437L79.9957 106.664L62.2275 116.538M158.966 120.487L178.708 134.311M178.708 134.311L172.785 144.185L174.76 152.084H166.863L168.837 163.933L194.502 179.731V187.63L202.399 197.504H192.528L186.605 211.328L200.425 213.303L188.579 221.202L182.657 240.95L200.425 250.824L182.657 262.672M74.073 246.874L79.9957 256.748L91.8412 252.798L95.7897 268.597L101.712 272.546V290.319L107.635 294.269L103.687 310.067L113.558 317.966M113.558 317.966L141.197 286.37L155.017 290.319L160.94 282.42L168.837 262.672H182.657M113.558 317.966L99.7382 333.765L119.481 351.538L141.197 343.639L135.275 363.387L145.146 369.311L141.197 373.26M182.657 262.672L202.399 278.471M141.197 373.26L174.76 387.084L190.554 369.311L204.373 365.361L200.425 351.538L208.322 343.639V327.84H218.193L222.142 310.067L210.296 314.017L190.554 304.143L202.399 278.471M202.399 278.471L230.039 276.496L237.936 264.647L251.755 294.269L271.498 286.37" stroke="#FFFBEF" stroke-width="4"/>
</svg>
